<mxfile host="Electron" agent="Mozilla/5.0 (Windows NT 10.0; Win64; x64) AppleWebKit/537.36 (KHTML, like Gecko) draw.io/28.1.2 Chrome/138.0.7204.243 Electron/37.4.0 Safari/537.36" version="28.1.2">
  <diagram name="Page-1" id="BWBXjEthqlyXaY7LhHL5">
    <mxGraphModel dx="1075" dy="435" grid="1" gridSize="10" guides="1" tooltips="1" connect="1" arrows="1" fold="1" page="1" pageScale="1" pageWidth="827" pageHeight="1169" math="0" shadow="0">
      <root>
        <mxCell id="0" />
        <mxCell id="1" parent="0" />
        <mxCell id="qXw7lEwcHxxjPTEGCxAM-10" style="edgeStyle=orthogonalEdgeStyle;rounded=0;orthogonalLoop=1;jettySize=auto;html=1;entryX=0.5;entryY=0;entryDx=0;entryDy=0;" parent="1" source="qXw7lEwcHxxjPTEGCxAM-5" target="qXw7lEwcHxxjPTEGCxAM-6" edge="1">
          <mxGeometry relative="1" as="geometry" />
        </mxCell>
        <mxCell id="qXw7lEwcHxxjPTEGCxAM-5" value="CameraPlanet" style="ellipse;whiteSpace=wrap;html=1;" parent="1" vertex="1">
          <mxGeometry x="166" y="50" width="120" height="80" as="geometry" />
        </mxCell>
        <mxCell id="qXw7lEwcHxxjPTEGCxAM-9" value="" style="edgeStyle=orthogonalEdgeStyle;rounded=0;orthogonalLoop=1;jettySize=auto;html=1;startArrow=oval;startFill=1;startSize=10;" parent="1" source="qXw7lEwcHxxjPTEGCxAM-6" target="qXw7lEwcHxxjPTEGCxAM-8" edge="1">
          <mxGeometry relative="1" as="geometry" />
        </mxCell>
        <mxCell id="qXw7lEwcHxxjPTEGCxAM-6" value="Has a planet in target?" style="rhombus;whiteSpace=wrap;html=1;" parent="1" vertex="1">
          <mxGeometry x="171" y="180" width="110" height="120" as="geometry" />
        </mxCell>
        <mxCell id="qXw7lEwcHxxjPTEGCxAM-8" value="&lt;div style=&quot;&quot;&gt;&lt;span style=&quot;background-color: transparent; color: light-dark(rgb(0, 0, 0), rgb(255, 255, 255));&quot;&gt;RC:&amp;nbsp;&lt;/span&gt;&lt;span style=&quot;background-color: transparent; color: light-dark(rgb(0, 0, 0), rgb(255, 255, 255));&quot;&gt;Select Planet&lt;/span&gt;&lt;/div&gt;RC+: Orient Camera&lt;br&gt;LC: Select Planet&lt;br&gt;LC+: Orient Camera&lt;br&gt;WASD: Move Camera&lt;br&gt;QE: Rotate Camera&lt;br&gt;Space/Ctrl: Move up/Down&lt;br&gt;Shift: Increase Speed&lt;br&gt;Escape: Menu" style="whiteSpace=wrap;html=1;align=left;" parent="1" vertex="1">
          <mxGeometry x="151" y="340" width="150" height="130" as="geometry" />
        </mxCell>
        <mxCell id="qXw7lEwcHxxjPTEGCxAM-11" value="&lt;div style=&quot;&quot;&gt;&lt;span style=&quot;background-color: transparent; color: light-dark(rgb(0, 0, 0), rgb(255, 255, 255));&quot;&gt;RC:&amp;nbsp;&lt;/span&gt;&lt;span style=&quot;background-color: transparent; color: light-dark(rgb(0, 0, 0), rgb(255, 255, 255));&quot;&gt;Action&amp;nbsp;&lt;/span&gt;&lt;/div&gt;RC+: Move Orbital Camera&lt;br&gt;LC: Select Item on Planet&lt;br&gt;LC+: Select Area&lt;br&gt;WASD: Move orbital Camera&lt;br&gt;QE: Rotate Camera&lt;br&gt;Space/Ctrl: Move up/Down&lt;br&gt;Shift: Increase Speed&lt;br&gt;Scroll: Zoom in/out&lt;div&gt;Escape: Untarget Planet&lt;/div&gt;" style="whiteSpace=wrap;html=1;align=left;" parent="1" vertex="1">
          <mxGeometry x="516" y="167.5" width="160" height="145" as="geometry" />
        </mxCell>
        <mxCell id="qXw7lEwcHxxjPTEGCxAM-14" style="edgeStyle=orthogonalEdgeStyle;rounded=0;orthogonalLoop=1;jettySize=auto;html=1;entryX=0;entryY=0.5;entryDx=0;entryDy=0;" parent="1" source="qXw7lEwcHxxjPTEGCxAM-12" target="qXw7lEwcHxxjPTEGCxAM-11" edge="1">
          <mxGeometry relative="1" as="geometry" />
        </mxCell>
        <mxCell id="qXw7lEwcHxxjPTEGCxAM-16" value="" style="edgeStyle=orthogonalEdgeStyle;rounded=0;orthogonalLoop=1;jettySize=auto;html=1;startArrow=oval;startFill=1;startSize=10;" parent="1" source="qXw7lEwcHxxjPTEGCxAM-12" target="qXw7lEwcHxxjPTEGCxAM-15" edge="1">
          <mxGeometry relative="1" as="geometry" />
        </mxCell>
        <mxCell id="qXw7lEwcHxxjPTEGCxAM-12" value="Is in the orbit &lt;br&gt;of the Planet?" style="rhombus;whiteSpace=wrap;html=1;" parent="1" vertex="1">
          <mxGeometry x="376" y="180" width="110" height="120" as="geometry" />
        </mxCell>
        <mxCell id="qXw7lEwcHxxjPTEGCxAM-13" style="edgeStyle=orthogonalEdgeStyle;rounded=0;orthogonalLoop=1;jettySize=auto;html=1;entryX=0.017;entryY=0.505;entryDx=0;entryDy=0;entryPerimeter=0;" parent="1" source="qXw7lEwcHxxjPTEGCxAM-6" target="qXw7lEwcHxxjPTEGCxAM-12" edge="1">
          <mxGeometry relative="1" as="geometry" />
        </mxCell>
        <mxCell id="qXw7lEwcHxxjPTEGCxAM-15" value="&lt;span style=&quot;&quot;&gt;Scroll: Zoom in/out&lt;br&gt;Shift: Increase Zoom&lt;br&gt;Escape: Untarget Planet&lt;/span&gt;" style="whiteSpace=wrap;html=1;align=left;" parent="1" vertex="1">
          <mxGeometry x="361.5" y="340" width="139" height="60" as="geometry" />
        </mxCell>
      </root>
    </mxGraphModel>
  </diagram>
</mxfile>
